# xmcd
#
# Track frame offsets:
# 150
# 20915
# 36102
# 58447
# 91702
# 115497
# 127877
# 143355
# 168140
# 200110
# 229960
# 244205
#
# Disc length: 3694 seconds
#
# Revision: 0
# Processed by: cddbd v1.5.1PL0 Copyright (c) Steve Scherf et al.
# Submitted via: Coin'sHifi 0.9 coinshifi@hotmail.fr
#
DISCID=a70e6c0c
DTITLE=Bertignac - Live [CD1]
DYEAR=1998
DGENRE=blues
TTITLE0=Vas Y Guitare
TTITLE1=Pas Cassé
TTITLE2=Days Of 96
TTITLE3=Pluie De Blues
TTITLE4=Maguy T'arrache Pas
TTITLE5=Oubliez Moi
TTITLE6=Sniper
TTITLE7=Je N'veux Plus T'attendre
TTITLE8=Cendrillon
TTITLE9=Le Vent Viendra
TTITLE10=(Sittin' On) The Dock Of The Day
TTITLE11=Muddy Waters Blues
EXTD=
EXTT0=
EXTT1=
EXTT2=
EXTT3=
EXTT4=
EXTT5=
EXTT6=
EXTT7=
EXTT8=
EXTT9=
EXTT10=
EXTT11=
PLAYORDER=
